<?xml version="1.0" encoding="utf-8"?>
<!-- Generator: Adobe Illustrator 17.0.0, SVG Export Plug-In . SVG Version: 6.00 Build 0)  -->
<!DOCTYPE svg PUBLIC "-//W3C//DTD SVG 1.1//EN" "http://www.w3.org/Graphics/SVG/1.1/DTD/svg11.dtd">
<svg version="1.1" id="Layer_1" xmlns="http://www.w3.org/2000/svg" xmlns:xlink="http://www.w3.org/1999/xlink" x="0px" y="0px"
	 width="200px" height="124px" viewBox="0 0 200 124" enable-background="new 0 0 200 124" xml:space="preserve">
<g>
	<path fill="#231F20" d="M75.193,58.385h15.316v4.418H79.981v4.054h9.423v4.42h-9.423v4.418h10.528v4.423H75.193V58.385z"/>
	<path fill="#231F20" d="M92.981,58.385h14.581v4.418h-9.791v4.421h9.055v4.419h-9.055v8.474h-4.791V58.385z"/>
	<path fill="#231F20" d="M134.238,80.117h-13.169c-6.787,0-11.789-4.146-11.789-11.145c0-6.57,5.158-11.141,11.606-11.141
		c6.442,0,11.601,4.604,11.601,11.141c0,3.07-1.35,6.081-4.33,7.4v0.06h6.081V80.117z M120.886,75.695
		c3.651,0,6.63-2.974,6.63-6.722c0-3.742-2.978-6.724-6.63-6.724c-3.656,0-6.634,2.981-6.634,6.724
		C114.252,72.721,117.231,75.695,120.886,75.695z"/>
	<path fill="#231F20" d="M136.71,58.385h7.245l5.001,14.18h0.061l5.037-14.18h7.21v21.733h-4.788V63.448h-0.058l-5.711,16.669
		h-3.654l-5.494-16.669h-0.063v16.669h-4.787V58.385z"/>
</g>
<g>
	<path fill="#231F20" d="M13.583,97.102c-0.472,0.641-1.085,1.161-1.838,1.56c-0.753,0.399-1.658,0.599-2.714,0.599
		c-0.91,0-1.751-0.155-2.52-0.464c-0.77-0.309-1.433-0.742-1.989-1.298c-0.556-0.556-0.992-1.219-1.307-1.989
		c-0.315-0.77-0.472-1.616-0.472-2.537c0-0.933,0.16-1.785,0.48-2.554c0.32-0.77,0.764-1.428,1.332-1.973
		c0.568-0.545,1.239-0.97,2.015-1.273c0.775-0.304,1.618-0.455,2.529-0.455c0.404,0,0.815,0.039,1.231,0.117
		c0.416,0.079,0.815,0.197,1.197,0.354c0.382,0.158,0.73,0.352,1.045,0.582c0.315,0.23,0.584,0.497,0.809,0.801l-1.315,1.011
		c-0.293-0.404-0.706-0.739-1.239-1.003c-0.534-0.264-1.11-0.396-1.728-0.396c-0.697,0-1.323,0.126-1.88,0.379
		c-0.556,0.253-1.031,0.599-1.424,1.037c-0.394,0.439-0.697,0.947-0.91,1.526c-0.214,0.578-0.32,1.194-0.32,1.846
		c0,0.674,0.104,1.304,0.312,1.888c0.208,0.584,0.506,1.093,0.894,1.525c0.388,0.433,0.86,0.773,1.416,1.02
		c0.556,0.248,1.177,0.371,1.863,0.371c0.674,0,1.287-0.135,1.838-0.405c0.55-0.269,1.006-0.663,1.365-1.18L13.583,97.102z"/>
	<path fill="#231F20" d="M22.922,94.944c0,0.618-0.109,1.186-0.329,1.703s-0.523,0.964-0.91,1.34
		c-0.388,0.376-0.846,0.668-1.374,0.876c-0.528,0.208-1.096,0.312-1.703,0.312s-1.175-0.104-1.703-0.312s-0.983-0.5-1.365-0.876
		c-0.382-0.376-0.683-0.823-0.902-1.34c-0.219-0.517-0.329-1.085-0.329-1.703c0-0.617,0.11-1.182,0.329-1.694
		c0.219-0.511,0.52-0.953,0.902-1.323c0.382-0.371,0.837-0.66,1.365-0.868c0.528-0.208,1.096-0.312,1.703-0.312
		s1.175,0.104,1.703,0.312c0.528,0.208,0.986,0.497,1.374,0.868c0.388,0.37,0.691,0.812,0.91,1.323
		C22.813,93.762,22.922,94.327,22.922,94.944z M21.27,94.953c0-0.381-0.059-0.745-0.178-1.093c-0.118-0.347-0.29-0.653-0.516-0.916
		c-0.226-0.263-0.505-0.474-0.837-0.631c-0.333-0.157-0.714-0.235-1.142-0.235c-0.429,0-0.809,0.078-1.142,0.235
		c-0.333,0.157-0.611,0.367-0.837,0.631c-0.226,0.263-0.397,0.569-0.516,0.916c-0.119,0.347-0.178,0.712-0.178,1.093
		c0,0.381,0.059,0.745,0.178,1.093c0.118,0.347,0.29,0.656,0.516,0.924c0.226,0.269,0.504,0.482,0.837,0.639
		s0.713,0.235,1.142,0.235c0.428,0,0.809-0.078,1.142-0.235c0.332-0.157,0.611-0.37,0.837-0.639
		c0.226-0.269,0.397-0.577,0.516-0.924C21.211,95.699,21.27,95.334,21.27,94.953z"/>
	<path fill="#231F20" d="M27.465,91.194c0.444-0.298,0.969-0.447,1.576-0.447c0.54,0,1.026,0.123,1.458,0.37
		c0.433,0.248,0.773,0.658,1.02,1.231c0.27-0.517,0.646-0.913,1.13-1.188c0.483-0.275,1.011-0.413,1.585-0.413
		c0.517,0,0.961,0.087,1.332,0.261c0.371,0.174,0.68,0.408,0.927,0.7c0.247,0.293,0.43,0.635,0.548,1.028
		c0.118,0.394,0.177,0.815,0.177,1.265v4.956h-1.585v-4.434c0-0.326-0.028-0.635-0.084-0.927c-0.056-0.292-0.152-0.551-0.287-0.775
		c-0.135-0.225-0.315-0.405-0.54-0.54c-0.225-0.135-0.511-0.202-0.86-0.202c-0.36,0-0.669,0.076-0.927,0.228
		c-0.259,0.151-0.469,0.348-0.632,0.59c-0.163,0.242-0.281,0.514-0.354,0.818c-0.073,0.303-0.11,0.613-0.11,0.927v4.316h-1.585
		v-4.754c0-0.314-0.028-0.601-0.084-0.86c-0.056-0.258-0.152-0.48-0.287-0.666c-0.135-0.185-0.309-0.331-0.523-0.438
		c-0.214-0.107-0.478-0.16-0.792-0.16c-0.585,0-1.071,0.239-1.459,0.716c-0.388,0.478-0.581,1.116-0.581,1.914v4.248h-1.585v-6.271
		c0-0.214-0.006-0.489-0.017-0.826c-0.011-0.338-0.028-0.635-0.051-0.894h1.5c0.022,0.202,0.039,0.43,0.051,0.682
		c0.011,0.253,0.017,0.464,0.017,0.632h0.051C26.698,91.854,27.021,91.491,27.465,91.194z"/>
	<path fill="#231F20" d="M42.25,91.194c0.444-0.298,0.969-0.447,1.576-0.447c0.54,0,1.026,0.123,1.458,0.37
		c0.433,0.248,0.773,0.658,1.02,1.231c0.27-0.517,0.646-0.913,1.13-1.188c0.483-0.275,1.011-0.413,1.585-0.413
		c0.517,0,0.961,0.087,1.332,0.261c0.371,0.174,0.68,0.408,0.927,0.7c0.247,0.293,0.43,0.635,0.548,1.028
		c0.118,0.394,0.177,0.815,0.177,1.265v4.956h-1.585v-4.434c0-0.326-0.028-0.635-0.084-0.927c-0.057-0.292-0.152-0.551-0.287-0.775
		c-0.135-0.225-0.315-0.405-0.54-0.54c-0.225-0.135-0.511-0.202-0.86-0.202c-0.36,0-0.669,0.076-0.927,0.228
		c-0.259,0.151-0.469,0.348-0.632,0.59c-0.163,0.242-0.281,0.514-0.354,0.818c-0.073,0.303-0.11,0.613-0.11,0.927v4.316h-1.585
		v-4.754c0-0.314-0.028-0.601-0.084-0.86c-0.056-0.258-0.152-0.48-0.287-0.666c-0.135-0.185-0.309-0.331-0.523-0.438
		c-0.214-0.107-0.478-0.16-0.792-0.16c-0.585,0-1.071,0.239-1.459,0.716c-0.388,0.478-0.581,1.116-0.581,1.914v4.248H39.73v-6.271
		c0-0.214-0.006-0.489-0.017-0.826c-0.011-0.338-0.028-0.635-0.051-0.894h1.5c0.022,0.202,0.039,0.43,0.051,0.682
		c0.011,0.253,0.017,0.464,0.017,0.632h0.051C41.483,91.854,41.806,91.491,42.25,91.194z"/>
	<path fill="#231F20" d="M56.37,88.083c0,0.293-0.103,0.534-0.31,0.725c-0.206,0.192-0.454,0.287-0.744,0.287
		c-0.29,0-0.535-0.098-0.736-0.295c-0.201-0.197-0.301-0.436-0.301-0.717c0-0.292,0.1-0.537,0.301-0.733
		c0.201-0.196,0.446-0.295,0.736-0.295c0.29,0,0.538,0.099,0.744,0.295C56.267,87.546,56.37,87.791,56.37,88.083z M56.117,98.957
		h-1.585v-7.991h1.585V98.957z"/>
	<path fill="#231F20" d="M62.624,92.264H60.5v4.152c0,0.482,0.09,0.826,0.27,1.033c0.18,0.207,0.466,0.311,0.86,0.311
		c0.146,0,0.303-0.016,0.472-0.046c0.168-0.031,0.32-0.078,0.455-0.139l0.051,1.298c-0.191,0.067-0.402,0.121-0.632,0.16
		c-0.23,0.04-0.47,0.059-0.717,0.059c-0.753,0-1.329-0.208-1.728-0.623c-0.399-0.416-0.599-1.039-0.599-1.872v-4.333h-1.534v-1.298
		h1.534v-2.293H60.5v2.293h2.125V92.264z"/>
	<path fill="#231F20" d="M67.749,92.264h-2.125v4.152c0,0.482,0.09,0.826,0.27,1.033c0.18,0.207,0.466,0.311,0.86,0.311
		c0.146,0,0.303-0.016,0.472-0.046c0.168-0.031,0.32-0.078,0.455-0.139l0.051,1.298c-0.191,0.067-0.402,0.121-0.632,0.16
		c-0.23,0.04-0.47,0.059-0.717,0.059c-0.753,0-1.329-0.208-1.728-0.623c-0.399-0.416-0.599-1.039-0.599-1.872v-4.333h-1.534v-1.298
		h1.534v-2.293h1.568v2.293h2.125V92.264z"/>
	<path fill="#231F20" d="M76.684,94.894c0,0.09,0,0.18,0,0.269c0,0.091-0.006,0.18-0.017,0.27h-6.356
		c0.011,0.335,0.087,0.65,0.228,0.946c0.141,0.296,0.329,0.552,0.565,0.77c0.236,0.218,0.508,0.388,0.818,0.51
		s0.638,0.184,0.986,0.184c0.54,0,1.006-0.118,1.399-0.354c0.394-0.236,0.702-0.522,0.928-0.86l1.112,0.894
		c-0.427,0.566-0.93,0.983-1.509,1.251c-0.579,0.267-1.222,0.401-1.93,0.401c-0.607,0-1.169-0.101-1.686-0.304
		c-0.517-0.202-0.961-0.486-1.332-0.851s-0.663-0.807-0.877-1.324c-0.214-0.516-0.32-1.09-0.32-1.72
		c0-0.617,0.104-1.188,0.312-1.711c0.208-0.523,0.498-0.97,0.87-1.34c0.372-0.371,0.811-0.66,1.318-0.868
		c0.507-0.208,1.053-0.312,1.639-0.312c0.586,0,1.118,0.096,1.597,0.287c0.479,0.191,0.884,0.466,1.216,0.826
		c0.332,0.36,0.588,0.795,0.769,1.307C76.594,93.677,76.684,94.254,76.684,94.894z M75.066,94.254
		c-0.011-0.315-0.065-0.61-0.16-0.885c-0.096-0.275-0.236-0.514-0.421-0.716c-0.186-0.203-0.416-0.363-0.691-0.481
		c-0.275-0.117-0.598-0.177-0.969-0.177c-0.338,0-0.655,0.059-0.953,0.177c-0.298,0.118-0.556,0.278-0.776,0.481
		c-0.219,0.202-0.399,0.441-0.54,0.716c-0.14,0.275-0.222,0.57-0.244,0.885H75.066z"/>
	<path fill="#231F20" d="M85.08,97.692c-0.303,0.483-0.717,0.852-1.239,1.105s-1.071,0.379-1.644,0.379
		c-0.618,0-1.175-0.11-1.669-0.329c-0.495-0.219-0.916-0.52-1.265-0.903c-0.348-0.382-0.618-0.831-0.809-1.349
		c-0.191-0.517-0.287-1.068-0.287-1.652c0-0.584,0.095-1.132,0.287-1.643c0.191-0.511,0.464-0.958,0.818-1.34
		c0.354-0.382,0.778-0.68,1.273-0.894c0.494-0.213,1.039-0.32,1.635-0.32c0.652,0,1.219,0.138,1.703,0.413
		c0.483,0.275,0.865,0.61,1.146,1.003h0.034v-5.951h1.585v12.745h-1.534v-1.265H85.08z M79.82,94.953
		c0,0.37,0.056,0.728,0.169,1.075c0.112,0.347,0.281,0.656,0.506,0.925c0.225,0.269,0.5,0.484,0.826,0.647
		c0.326,0.162,0.708,0.243,1.146,0.243c0.404,0,0.773-0.078,1.104-0.235c0.332-0.157,0.616-0.367,0.852-0.631
		c0.236-0.263,0.418-0.568,0.548-0.916c0.129-0.347,0.194-0.712,0.194-1.093s-0.065-0.745-0.194-1.093
		c-0.129-0.347-0.312-0.656-0.548-0.924c-0.236-0.269-0.52-0.482-0.852-0.639c-0.332-0.157-0.7-0.235-1.104-0.235
		c-0.438,0-0.821,0.078-1.146,0.235c-0.326,0.157-0.601,0.37-0.826,0.639c-0.225,0.269-0.393,0.577-0.506,0.924
		C79.876,94.224,79.82,94.583,79.82,94.953z"/>
	<path fill="#231F20" d="M97.201,92.264h-2.125v4.152c0,0.482,0.09,0.826,0.27,1.033c0.18,0.207,0.466,0.311,0.86,0.311
		c0.146,0,0.303-0.016,0.472-0.046c0.168-0.031,0.32-0.078,0.455-0.139l0.051,1.298c-0.191,0.067-0.402,0.121-0.632,0.16
		c-0.23,0.04-0.47,0.059-0.717,0.059c-0.753,0-1.329-0.208-1.728-0.623c-0.399-0.416-0.599-1.039-0.599-1.872v-4.333h-1.534v-1.298
		h1.534v-2.293h1.568v2.293h2.125V92.264z"/>
	<path fill="#231F20" d="M106.76,94.944c0,0.618-0.109,1.186-0.329,1.703c-0.219,0.517-0.523,0.964-0.91,1.34
		s-0.846,0.668-1.374,0.876c-0.528,0.208-1.096,0.312-1.703,0.312c-0.607,0-1.175-0.104-1.703-0.312
		c-0.528-0.208-0.983-0.5-1.365-0.876c-0.382-0.376-0.683-0.823-0.902-1.34c-0.219-0.517-0.329-1.085-0.329-1.703
		c0-0.617,0.11-1.182,0.329-1.694c0.219-0.511,0.52-0.953,0.902-1.323c0.382-0.371,0.837-0.66,1.365-0.868
		c0.528-0.208,1.096-0.312,1.703-0.312c0.607,0,1.175,0.104,1.703,0.312c0.528,0.208,0.986,0.497,1.374,0.868
		c0.388,0.37,0.691,0.812,0.91,1.323C106.65,93.762,106.76,94.327,106.76,94.944z M105.108,94.953c0-0.381-0.059-0.745-0.178-1.093
		c-0.118-0.347-0.29-0.653-0.516-0.916c-0.226-0.263-0.505-0.474-0.837-0.631c-0.333-0.157-0.714-0.235-1.142-0.235
		c-0.429,0-0.809,0.078-1.142,0.235c-0.333,0.157-0.611,0.367-0.837,0.631c-0.226,0.263-0.397,0.569-0.516,0.916
		c-0.119,0.347-0.178,0.712-0.178,1.093c0,0.381,0.059,0.745,0.178,1.093c0.118,0.347,0.29,0.656,0.516,0.924
		c0.226,0.269,0.504,0.482,0.837,0.639s0.713,0.235,1.142,0.235c0.428,0,0.809-0.078,1.142-0.235
		c0.332-0.157,0.611-0.37,0.837-0.639c0.226-0.269,0.397-0.577,0.516-0.924C105.048,95.699,105.108,95.334,105.108,94.953z"/>
	<path fill="#231F20" d="M120.297,94.894c0,0.09,0,0.18,0,0.269c0,0.091-0.006,0.18-0.017,0.27h-6.356
		c0.011,0.335,0.087,0.65,0.228,0.946c0.141,0.296,0.329,0.552,0.565,0.77c0.236,0.218,0.509,0.388,0.818,0.51
		c0.309,0.123,0.638,0.184,0.986,0.184c0.54,0,1.006-0.118,1.399-0.354c0.394-0.236,0.702-0.522,0.928-0.86l1.112,0.894
		c-0.427,0.566-0.93,0.983-1.509,1.251c-0.579,0.267-1.222,0.401-1.93,0.401c-0.607,0-1.169-0.101-1.686-0.304
		c-0.517-0.202-0.961-0.486-1.332-0.851s-0.663-0.807-0.877-1.324c-0.214-0.516-0.32-1.09-0.32-1.72
		c0-0.617,0.104-1.188,0.312-1.711c0.208-0.523,0.498-0.97,0.87-1.34c0.372-0.371,0.811-0.66,1.318-0.868
		c0.507-0.208,1.053-0.312,1.639-0.312c0.586,0,1.118,0.096,1.597,0.287c0.479,0.191,0.884,0.466,1.216,0.826
		c0.332,0.36,0.588,0.795,0.769,1.307C120.207,93.677,120.297,94.254,120.297,94.894z M118.678,94.254
		c-0.011-0.315-0.065-0.61-0.16-0.885c-0.096-0.275-0.236-0.514-0.421-0.716c-0.186-0.203-0.416-0.363-0.691-0.481
		c-0.275-0.117-0.598-0.177-0.969-0.177c-0.338,0-0.655,0.059-0.953,0.177c-0.298,0.118-0.556,0.278-0.776,0.481
		c-0.219,0.202-0.399,0.441-0.54,0.716c-0.14,0.275-0.222,0.57-0.244,0.885H118.678z"/>
	<path fill="#231F20" d="M124.107,94.759l-2.917-3.793h1.956l1.955,2.748l1.973-2.748h1.854l-2.883,3.776l3.22,4.215h-1.972
		l-2.226-3.119l-2.259,3.119h-1.905L124.107,94.759z"/>
	<path fill="#231F20" d="M136.025,92.989c-0.168-0.258-0.421-0.474-0.758-0.649c-0.338-0.174-0.697-0.261-1.079-0.261
		c-0.416,0-0.784,0.079-1.104,0.236c-0.32,0.157-0.593,0.368-0.818,0.632c-0.225,0.264-0.396,0.57-0.514,0.919
		c-0.118,0.348-0.177,0.713-0.177,1.096c0,0.382,0.059,0.748,0.177,1.096c0.118,0.349,0.289,0.655,0.514,0.919
		c0.225,0.264,0.5,0.475,0.825,0.632c0.326,0.157,0.697,0.236,1.114,0.236c0.404,0,0.772-0.079,1.104-0.236
		c0.332-0.157,0.604-0.371,0.818-0.641l1.062,0.961c-0.338,0.394-0.759,0.7-1.264,0.919c-0.506,0.219-1.079,0.329-1.72,0.329
		c-0.618,0-1.188-0.101-1.711-0.304c-0.523-0.202-0.975-0.486-1.357-0.851c-0.383-0.365-0.683-0.807-0.903-1.324
		c-0.219-0.516-0.329-1.096-0.329-1.736c0-0.629,0.107-1.203,0.32-1.72c0.213-0.517,0.511-0.961,0.894-1.332
		c0.382-0.37,0.834-0.657,1.357-0.86c0.523-0.202,1.088-0.303,1.694-0.303c0.563,0,1.121,0.112,1.678,0.337
		c0.557,0.225,0.997,0.551,1.323,0.978L136.025,92.989z"/>
	<path fill="#231F20" d="M146.056,94.894c0,0.09,0,0.18,0,0.269c0,0.091-0.005,0.18-0.016,0.27h-6.356
		c0.011,0.335,0.087,0.65,0.227,0.946s0.329,0.552,0.565,0.77c0.236,0.218,0.509,0.388,0.817,0.51
		c0.31,0.123,0.638,0.184,0.986,0.184c0.54,0,1.006-0.118,1.399-0.354c0.394-0.236,0.702-0.522,0.928-0.86l1.112,0.894
		c-0.427,0.566-0.93,0.983-1.509,1.251c-0.579,0.267-1.223,0.401-1.931,0.401c-0.606,0-1.169-0.101-1.685-0.304
		c-0.518-0.202-0.961-0.486-1.332-0.851s-0.663-0.807-0.877-1.324c-0.213-0.516-0.32-1.09-0.32-1.72
		c0-0.617,0.105-1.188,0.313-1.711c0.208-0.523,0.498-0.97,0.87-1.34c0.372-0.371,0.811-0.66,1.319-0.868
		c0.507-0.208,1.052-0.312,1.639-0.312c0.585,0,1.117,0.096,1.596,0.287c0.478,0.191,0.884,0.466,1.216,0.826
		c0.332,0.36,0.588,0.795,0.769,1.307C145.966,93.677,146.056,94.254,146.056,94.894z M144.438,94.254
		c-0.011-0.315-0.064-0.61-0.16-0.885c-0.096-0.275-0.236-0.514-0.421-0.716c-0.186-0.203-0.416-0.363-0.691-0.481
		c-0.275-0.117-0.598-0.177-0.969-0.177c-0.338,0-0.656,0.059-0.953,0.177c-0.298,0.118-0.556,0.278-0.776,0.481
		c-0.219,0.202-0.398,0.441-0.539,0.716s-0.222,0.57-0.245,0.885H144.438z"/>
	<path fill="#231F20" d="M149.698,98.957h-1.584V86.212h1.584V98.957z"/>
	<path fill="#231F20" d="M153.912,98.957h-1.584V86.212h1.584V98.957z"/>
	<path fill="#231F20" d="M163.978,94.894c0,0.09,0,0.18,0,0.269c0,0.091-0.006,0.18-0.017,0.27h-6.356
		c0.011,0.335,0.087,0.65,0.227,0.946c0.141,0.296,0.329,0.552,0.565,0.77c0.236,0.218,0.508,0.388,0.818,0.51
		c0.308,0.123,0.638,0.184,0.986,0.184c0.539,0,1.006-0.118,1.399-0.354c0.394-0.236,0.703-0.522,0.927-0.86l1.113,0.894
		c-0.427,0.566-0.93,0.983-1.509,1.251c-0.579,0.267-1.222,0.401-1.93,0.401c-0.608,0-1.17-0.101-1.687-0.304
		c-0.516-0.202-0.961-0.486-1.331-0.851c-0.37-0.365-0.664-0.807-0.876-1.324c-0.214-0.516-0.32-1.09-0.32-1.72
		c0-0.617,0.103-1.188,0.312-1.711c0.209-0.523,0.498-0.97,0.87-1.34c0.371-0.371,0.811-0.66,1.317-0.868
		c0.507-0.208,1.054-0.312,1.639-0.312c0.586,0,1.118,0.096,1.597,0.287c0.479,0.191,0.884,0.466,1.217,0.826
		c0.332,0.36,0.588,0.795,0.768,1.307C163.888,93.677,163.978,94.254,163.978,94.894z M162.359,94.254
		c-0.011-0.315-0.065-0.61-0.16-0.885c-0.096-0.275-0.236-0.514-0.421-0.716c-0.186-0.203-0.416-0.363-0.691-0.481
		c-0.275-0.117-0.599-0.177-0.969-0.177c-0.337,0-0.655,0.059-0.953,0.177c-0.298,0.118-0.557,0.278-0.775,0.481
		c-0.219,0.202-0.4,0.441-0.54,0.716c-0.14,0.275-0.221,0.57-0.244,0.885H162.359z"/>
	<path fill="#231F20" d="M167.433,90.966c0.022,0.202,0.039,0.43,0.05,0.682c0.011,0.253,0.017,0.464,0.017,0.632h0.051
		c0.1-0.213,0.238-0.413,0.413-0.599c0.174-0.186,0.373-0.348,0.598-0.489c0.225-0.141,0.472-0.25,0.742-0.329
		c0.269-0.079,0.551-0.118,0.843-0.118c0.518,0,0.961,0.087,1.332,0.261c0.371,0.174,0.68,0.408,0.928,0.7
		c0.247,0.293,0.43,0.635,0.548,1.028c0.118,0.394,0.177,0.815,0.177,1.265v4.956h-1.585v-4.434c0-0.326-0.025-0.635-0.076-0.927
		c-0.05-0.292-0.143-0.551-0.278-0.775c-0.135-0.225-0.32-0.405-0.557-0.54c-0.236-0.135-0.54-0.202-0.91-0.202
		c-0.63,0-1.144,0.239-1.543,0.716c-0.399,0.478-0.599,1.116-0.599,1.914v4.248H166v-6.271c0-0.214-0.006-0.489-0.017-0.826
		c-0.011-0.338-0.028-0.635-0.051-0.894H167.433z"/>
	<path fill="#231F20" d="M181.24,92.989c-0.169-0.258-0.422-0.474-0.759-0.649c-0.338-0.174-0.697-0.261-1.079-0.261
		c-0.416,0-0.784,0.079-1.105,0.236c-0.32,0.157-0.593,0.368-0.817,0.632c-0.225,0.264-0.397,0.57-0.515,0.919
		c-0.117,0.348-0.177,0.713-0.177,1.096c0,0.382,0.059,0.748,0.177,1.096c0.118,0.349,0.29,0.655,0.515,0.919
		c0.225,0.264,0.5,0.475,0.826,0.632c0.326,0.157,0.696,0.236,1.112,0.236c0.405,0,0.773-0.079,1.105-0.236
		c0.332-0.157,0.605-0.371,0.817-0.641l1.063,0.961c-0.337,0.394-0.759,0.7-1.265,0.919c-0.506,0.219-1.079,0.329-1.72,0.329
		c-0.618,0-1.188-0.101-1.711-0.304c-0.522-0.202-0.975-0.486-1.357-0.851c-0.382-0.365-0.682-0.807-0.902-1.324
		c-0.219-0.516-0.329-1.096-0.329-1.736c0-0.629,0.106-1.203,0.32-1.72c0.213-0.517,0.511-0.961,0.894-1.332
		c0.382-0.37,0.834-0.657,1.357-0.86c0.522-0.202,1.087-0.303,1.694-0.303c0.561,0,1.121,0.112,1.677,0.337
		c0.556,0.225,0.998,0.551,1.324,0.978L181.24,92.989z"/>
	<path fill="#231F20" d="M191.271,94.894c0,0.09,0,0.18,0,0.269c0,0.091-0.006,0.18-0.017,0.27h-6.356
		c0.011,0.335,0.087,0.65,0.227,0.946s0.329,0.552,0.565,0.77c0.236,0.218,0.508,0.388,0.818,0.51
		c0.308,0.123,0.638,0.184,0.986,0.184c0.539,0,1.006-0.118,1.399-0.354c0.394-0.236,0.703-0.522,0.927-0.86l1.113,0.894
		c-0.427,0.566-0.93,0.983-1.509,1.251c-0.579,0.267-1.222,0.401-1.93,0.401c-0.608,0-1.17-0.101-1.687-0.304
		c-0.516-0.202-0.961-0.486-1.331-0.851c-0.37-0.365-0.664-0.807-0.876-1.324c-0.214-0.516-0.32-1.09-0.32-1.72
		c0-0.617,0.103-1.188,0.312-1.711c0.209-0.523,0.498-0.97,0.87-1.34c0.371-0.371,0.811-0.66,1.317-0.868
		c0.507-0.208,1.054-0.312,1.639-0.312c0.586,0,1.118,0.096,1.597,0.287c0.479,0.191,0.884,0.466,1.217,0.826
		c0.332,0.36,0.588,0.795,0.768,1.307C191.181,93.677,191.271,94.254,191.271,94.894z M189.653,94.254
		c-0.011-0.315-0.065-0.61-0.16-0.885c-0.096-0.275-0.236-0.514-0.421-0.716c-0.186-0.203-0.416-0.363-0.691-0.481
		c-0.275-0.117-0.599-0.177-0.969-0.177c-0.338,0-0.655,0.059-0.953,0.177c-0.298,0.118-0.557,0.278-0.775,0.481
		c-0.219,0.202-0.4,0.441-0.54,0.716c-0.14,0.275-0.222,0.57-0.244,0.885H189.653z"/>
	<path fill="#231F20" d="M150.187,115.049v-2.357l4.652-4.207c0.293-0.281,0.528-0.566,0.709-0.858
		c0.18-0.292,0.269-0.617,0.269-0.976c0-0.427-0.135-0.772-0.405-1.035s-0.629-0.396-1.078-0.396c-0.473,0-0.858,0.166-1.155,0.498
		c-0.298,0.332-0.474,0.767-0.531,1.307l-2.714-0.371c0.067-0.607,0.233-1.147,0.497-1.622c0.264-0.474,0.599-0.878,1.003-1.212
		c0.405-0.334,0.868-0.589,1.391-0.764c0.523-0.176,1.076-0.263,1.661-0.263c0.551,0,1.084,0.073,1.601,0.219
		s0.978,0.371,1.383,0.674c0.404,0.304,0.727,0.685,0.969,1.146c0.242,0.461,0.362,1.001,0.362,1.619
		c0,0.427-0.056,0.812-0.168,1.155s-0.267,0.66-0.464,0.953c-0.196,0.292-0.421,0.564-0.674,0.817
		c-0.253,0.253-0.515,0.504-0.784,0.751l-2.765,2.461h4.872v2.461H150.187z"/>
	<path fill="#231F20" d="M169.878,109.048c0,0.843-0.085,1.646-0.253,2.411c-0.169,0.764-0.439,1.435-0.81,2.015
		c-0.37,0.578-0.851,1.039-1.441,1.382c-0.59,0.343-1.307,0.514-2.149,0.514s-1.563-0.171-2.158-0.514
		c-0.596-0.343-1.081-0.804-1.458-1.382c-0.377-0.579-0.65-1.25-0.818-2.015c-0.168-0.765-0.252-1.569-0.252-2.411
		s0.084-1.643,0.252-2.402c0.168-0.759,0.441-1.422,0.818-1.99c0.376-0.567,0.862-1.019,1.458-1.357
		c0.596-0.338,1.316-0.506,2.158-0.506s1.56,0.168,2.149,0.506c0.59,0.338,1.071,0.79,1.441,1.357
		c0.371,0.568,0.641,1.231,0.81,1.99C169.793,107.404,169.878,108.205,169.878,109.048z M166.978,109.048
		c0-0.371-0.023-0.781-0.067-1.231c-0.046-0.449-0.129-0.868-0.253-1.256c-0.123-0.388-0.301-0.713-0.531-0.977
		c-0.23-0.264-0.531-0.397-0.903-0.397c-0.371,0-0.674,0.132-0.91,0.397c-0.236,0.264-0.419,0.59-0.548,0.977
		c-0.13,0.388-0.217,0.807-0.262,1.256c-0.045,0.45-0.067,0.86-0.067,1.231c0,0.382,0.022,0.801,0.067,1.256
		c0.045,0.456,0.132,0.877,0.262,1.265c0.129,0.388,0.311,0.714,0.548,0.978c0.236,0.264,0.539,0.396,0.91,0.396
		c0.371,0,0.672-0.132,0.903-0.396c0.23-0.264,0.407-0.59,0.531-0.978c0.123-0.388,0.207-0.809,0.253-1.265
		C166.955,109.848,166.978,109.43,166.978,109.048z"/>
	<path fill="#231F20" d="M175.255,115.049v-8.767l-2.226,1.72l-1.466-2.006l3.927-2.883h2.58v11.936H175.255z"/>
	<path fill="#231F20" d="M191.035,111.581c0,0.651-0.132,1.215-0.396,1.692c-0.264,0.477-0.61,0.87-1.036,1.179
		c-0.428,0.309-0.908,0.539-1.441,0.69c-0.534,0.152-1.077,0.228-1.627,0.228c-0.54,0-1.066-0.062-1.577-0.186
		c-0.511-0.123-0.978-0.312-1.399-0.564c-0.421-0.253-0.79-0.579-1.104-0.978c-0.315-0.399-0.551-0.879-0.708-1.441l2.63-0.691
		c0.112,0.394,0.343,0.739,0.691,1.037c0.348,0.298,0.792,0.447,1.331,0.447c0.203,0,0.408-0.028,0.616-0.085
		c0.207-0.056,0.393-0.144,0.556-0.261c0.162-0.118,0.297-0.272,0.405-0.464c0.106-0.191,0.16-0.427,0.16-0.708
		c0-0.303-0.07-0.556-0.211-0.759c-0.141-0.202-0.326-0.362-0.557-0.48c-0.23-0.117-0.491-0.202-0.784-0.253
		c-0.293-0.05-0.584-0.076-0.876-0.076h-0.759v-2.056h0.826c0.269,0,0.528-0.02,0.775-0.06c0.247-0.039,0.469-0.113,0.666-0.22
		c0.196-0.108,0.354-0.251,0.471-0.433c0.118-0.181,0.177-0.419,0.177-0.712c0-0.43-0.152-0.758-0.455-0.984
		c-0.303-0.226-0.652-0.34-1.045-0.34c-0.404,0-0.756,0.121-1.054,0.363c-0.298,0.242-0.492,0.565-0.581,0.969l-2.63-0.607
		c0.147-0.506,0.365-0.947,0.658-1.323c0.293-0.376,0.638-0.691,1.036-0.944c0.4-0.253,0.835-0.444,1.307-0.573
		c0.472-0.129,0.956-0.194,1.45-0.194c0.528,0,1.042,0.068,1.542,0.203c0.501,0.135,0.947,0.343,1.34,0.625s0.711,0.633,0.953,1.055
		c0.242,0.422,0.363,0.92,0.363,1.494c0,0.665-0.189,1.225-0.566,1.68c-0.376,0.456-0.857,0.763-1.441,0.92v0.051
		c0.338,0.079,0.647,0.204,0.928,0.379c0.281,0.174,0.522,0.382,0.724,0.623c0.202,0.242,0.359,0.511,0.472,0.808
		C190.979,110.928,191.035,111.245,191.035,111.581z"/>
</g>
<rect x="169.411" y="58.395" fill="#F26F21" width="21.722" height="21.722"/>
<rect x="104.174" y="25.813" fill="#B1B3B5" width="86.96" height="10.86"/>
<rect x="133.161" y="9.521" fill="#B1B3B5" width="57.973" height="10.861"/>
<g>
	<path fill="#231F20" d="M194.546,52.964c1.477,0,2.716,1.168,2.716,2.701c0,1.562-1.239,2.73-2.716,2.73
		c-1.477,0-2.716-1.168-2.716-2.701C191.83,54.133,193.069,52.964,194.546,52.964z M194.546,58.001c1.267,0,2.28-1.007,2.28-2.336
		c0-1.307-1.013-2.307-2.28-2.307c-1.267,0-2.28,1-2.28,2.336C192.266,56.993,193.279,58.001,194.546,58.001z M193.539,54.125h1.144
		c0.746,0,1.101,0.277,1.101,0.905c0,0.562-0.362,0.803-0.826,0.854l0.898,1.386h-0.471l-0.854-1.35h-0.557v1.35h-0.435V54.125z
		 M193.974,55.526h0.535c0.435,0,0.84-0.022,0.84-0.518c0-0.438-0.369-0.489-0.703-0.489h-0.673V55.526z"/>
</g>
<rect x="75.179" y="42.103" fill="#6D6E70" width="115.956" height="10.861"/>
</svg>
