<?xml version="1.0" encoding="utf-8"?>
<!-- Generator: Adobe Illustrator 19.1.0, SVG Export Plug-In . SVG Version: 6.00 Build 0)  -->
<!DOCTYPE svg PUBLIC "-//W3C//DTD SVG 1.1//EN" "http://www.w3.org/Graphics/SVG/1.1/DTD/svg11.dtd">
<svg version="1.1" id="Layer_1" xmlns="http://www.w3.org/2000/svg" xmlns:xlink="http://www.w3.org/1999/xlink" x="0px" y="0px"
	 viewBox="0 0 450 175" style="enable-background:new 0 0 450 175;" xml:space="preserve">
<style type="text/css">
	.st0{fill:#11A14E;}
	.st1{fill:#0673BA;}
	.st2{fill:url(#SVGID_1_);}
	.st3{fill:url(#SVGID_2_);}
	.st4{fill:url(#SVGID_3_);}
	.st5{fill:url(#SVGID_4_);}
	.st6{fill:url(#SVGID_5_);}
	.st7{fill:url(#SVGID_6_);}
</style>
<g id="Logo">
	<path class="st0" d="M341.4,137c-4,0-4.2-2.4-4.1-4.2c0.1-1.7,31.1-48.8,31.1-48.8l-21.8,3.7c0,0,0.1-4-10.9-4
		c-11,0-27.7,11.1-36.9,21.2c-9.2,10.2-14.8,21.6-14.7,24.6l-9.4,4.3c0,0-7,3.2-10,3.1c-2.9-0.2-4.3-1.2-4.3-3.6
		c0-2.4,10.3-16.3,12.9-20.4c2.7-4.2,13.4-16.6,13.3-22.4c-0.1-5.8-3.4-6.5-8-6.5c-4.6,0-12.3,1.6-17.2,4.8
		c-4.9,3.2-28.1,30.5-33.7,37.8c-5.6,7.3-6.7,8.9-9,10.4c0,0,8.1-12,10.7-15.8c2.6-3.8,24.2-36.8,24.2-36.8l-23.1,3.9
		c0,0-25.3,39.8-26.3,40.7c-1.1,0.9-11.1,6.6-15.1,7.4c-4,0.8-7.5-0.1-7.2-3.5c0.3-3.3,9.3-16,12.6-20.3c3.3-4.3,18.9-29,18.9-29
		l-21.5,3.8c0,0-3.5-3.6-10.7-3.7c-7.2-0.1-27.2,8.8-33.8,16.2c-6.6,7.4-17.8,21-18.4,28.3c0,0-13.9,8.8-18.9,9
		c-4.4,0.1-4.5-2-4.4-4.1c0.2-4,11.1-19.3,14.2-23.8c3.1-4.5,17.1-25.9,17.1-25.9c-3.5,1.6-16.6,9.9-24.5,7.3c0,0-24,34.4-25.8,39.3
		c-2.3,6.5,4.8,11.7,13.2,11.8c12.2,0.1,24.7-6.6,28.8-9.6c0,0,0,9.4,14.5,9.5c14.5,0.1,18.7-5.9,20.9-6.9c0,0,3.1,7.3,13.5,7.2
		c10.4-0.1,20.5-5.4,24.8-8.3c0,0-0.2,8,9.9,7.4s12.4-6.6,15.7-10.6c0,0,29.5-37.8,36.9-40.9c7.4-3.1,5.5-2.3,3.1,1.4
		c-2.4,3.7-25.6,31.8-25.8,41.8c-0.2,10,8.6,9.2,13.6,9.2c5,0,22.2-5.4,28.2-9.4c0,0,2.2,9.4,12.3,9.4s20.5-5.1,23.1-6.7
		c0,0,2,6.8,13.2,6.7c11.2-0.1,27.4-9.4,28.8-10.3l-0.9-1.8C360.8,129.7,345.3,137,341.4,137z M166,125.5c-1.2,1.8-2.2,3.6-2.2,5.9
		c0,0-7.4,6.1-11.9,6.1c-4.4,0-4.2-2.9-4.1-4.9c0.3-6,6.6-16.7,10.4-21.9c3-4.1,14.6-23.5,24.4-23.7c5.6-0.1,5.3,2.3,6.3,4.3
		C189,91.2,167.2,123.5,166,125.5z M321.5,125.4c-1.2,1.8-2.2,3.6-2.2,5.9c0,0-8.5,6-11.9,6.1c-4.4,0.1-4.2-2.9-4.1-4.9
		c0.3-6,6.6-16.7,10.4-21.9c3-4.1,14.6-23.5,24.4-23.7c5.6-0.1,5.3,2.3,6.3,4.3C344.5,91.1,322.7,123.5,321.5,125.4z"/>
	<path class="st1" d="M336.5,130.9c-4,0-4.2-2.4-4.1-4.2c0.1-1.7,31.1-48.8,31.1-48.8l-21.8,3.7c0,0,0.1-4-10.9-4
		s-27.7,11.1-36.9,21.2c-9.2,10.2-14.8,21.6-14.7,24.6l-9.4,4.3c0,0-7,3.2-10,3.1c-2.9-0.2-4.3-1.2-4.3-3.6
		c0-2.4,10.3-16.3,12.9-20.4c2.7-4.2,13.4-16.6,13.3-22.4c-0.1-5.8-3.4-6.5-8-6.5c-4.6,0-12.3,1.6-17.2,4.8
		c-4.9,3.2-28.1,30.5-33.7,37.8c-5.6,7.3-6.7,8.9-9,10.4c0,0,8.1-12,10.7-15.8c2.6-3.8,24.2-36.8,24.2-36.8l-23.1,3.9
		c0,0-25.3,39.8-26.3,40.7c-1.1,0.9-11.1,6.6-15.1,7.4c-4,0.8-7.5-0.1-7.2-3.5c0.3-3.3,9.3-16,12.6-20.3c3.3-4.3,18.9-29,18.9-29
		l-21.5,3.8c0,0-3.5-3.6-10.7-3.7c-7.2-0.1-27.2,8.8-33.8,16.2c-6.6,7.4-17.8,21-18.4,28.3c0,0-13.9,8.8-18.9,9
		c-4.4,0.1-4.5-2-4.4-4.1c0.2-4,11.1-19.3,14.2-23.8c3.1-4.5,17.1-25.9,17.1-25.9c-3.5,1.6-16.6,9.9-24.5,7.3c0,0-24,34.4-25.8,39.3
		c-2.3,6.5,4.8,11.7,13.2,11.8c12.2,0.1,24.7-6.6,28.8-9.6c0,0,0,9.4,14.5,9.5c14.5,0.1,18.7-5.9,20.9-6.9c0,0,3.1,7.3,13.5,7.2
		c10.4-0.1,20.5-5.4,24.8-8.3c0,0-0.2,8,9.9,7.4c10.2-0.6,12.4-6.6,15.7-10.6c0,0,29.5-37.8,36.9-40.9s5.5-2.3,3.1,1.4
		c-2.4,3.7-25.6,31.8-25.8,41.8c-0.2,10,8.6,9.2,13.6,9.2c5,0,22.2-5.4,28.2-9.4c0,0,2.2,9.4,12.3,9.4s20.5-5.1,23.1-6.7
		c0,0,2,6.8,13.2,6.7c11.2-0.1,27.4-9.4,28.8-10.3l-0.9-1.8C355.8,123.6,340.4,130.9,336.5,130.9z M161.1,119.3
		c-1.2,1.8-2.2,3.6-2.2,5.9c0,0-7.4,6.1-11.9,6.1s-4.2-2.9-4.1-4.9c0.3-6,6.6-16.7,10.4-21.9c3-4.1,14.6-23.5,24.4-23.7
		c5.6-0.1,5.3,2.3,6.3,4.3C184.1,85,162.3,117.4,161.1,119.3z M316.6,119.3c-1.2,1.8-2.2,3.6-2.2,5.9c0,0-8.5,6-11.9,6.1
		c-4.4,0.1-4.2-2.9-4.1-4.9c0.3-6,6.6-16.7,10.4-21.9c3-4.1,14.6-23.5,24.4-23.7c5.6-0.1,5.3,2.3,6.3,4.3
		C339.6,85,317.8,117.4,316.6,119.3z"/>
	
		<linearGradient id="SVGID_1_" gradientUnits="userSpaceOnUse" x1="205.3956" y1="38.2976" x2="226.8159" y2="68.4445" gradientTransform="matrix(0.5 0 0 -0.5 0.5 87.5)">
		<stop  offset="0" style="stop-color:#0673BA"/>
		<stop  offset="1" style="stop-color:#11A14E"/>
	</linearGradient>
	<path class="st2" d="M129.4,43.1l-12,7.5c2.2,7.5,5.8,14.6,10.2,21.6c-1.1,1.3-2.4,2.5-3.8,3.6c-4.5-6.8-8.2-14.4-10.4-22.6l-9,5.6
		c2.1,7.1,5.2,14,8.9,20.9c-0.5,0-1,0.1-1.6,0.1c-1.4,0-2.8-0.2-4.1-0.4c-3.1-5.6-5.6-11.6-7.3-18l-8.2,5.1
		c-0.7-1.6-1.2-3.2-1.6-4.9l8.6-5.2c-0.5-2.6-0.9-5.2-1.1-7.9l-7.8,5c0.2-1.7,0.6-3.4,1.1-4.9l6.4-3.8c0-2,0-4,0.1-6.1
		c-4.9,4.3-8,10.8-8,18.1c0,12.9,9.7,23.3,21.6,23.3s21.6-10.4,21.6-23.3C133.3,51.5,131.8,46.9,129.4,43.1z"/>
	
		<linearGradient id="SVGID_2_" gradientUnits="userSpaceOnUse" x1="219.3269" y1="68.7496" x2="212.7881" y2="18.2833" gradientTransform="matrix(0.5 0 0 -0.5 0.5 87.5)">
		<stop  offset="0" style="stop-color:#FFFFFF"/>
		<stop  offset="1" style="stop-color:#1173BA"/>
	</linearGradient>
	<path class="st3" d="M97.9,44.4l-6.4,3.8c-0.5,1.6-0.9,3.2-1.1,4.9l7.8-5c0.2,2.7,0.6,5.3,1.1,7.9l-8.6,5.2
		c0.3,1.7,0.9,3.4,1.6,4.9l8.2-5.1c1.7,6.4,4.2,12.5,7.3,18c1.3,0.3,2.7,0.4,4.1,0.4c0.5,0,1,0,1.6-0.1c-3.8-6.9-6.9-13.8-8.9-20.9
		l9-5.6c2.2,8.2,5.9,15.9,10.4,22.6c1.4-1,2.7-2.2,3.8-3.6c-4.4-7-7.9-14.1-10.2-21.6l12-7.5c-0.9-1.3-1.8-2.5-2.9-3.6l-10.3,6.3
		c-0.6-2.7-1-5.5-1.2-8.3l4.4-2.8c-1.1-0.4-2.2-0.8-3.3-1.1l-1.3,0.7c0-0.3,0-0.6,0-1c-1-0.2-2-0.3-3.1-0.3c-0.2,0-0.5,0-0.7,0
		c0,1.2,0,2.3,0,3.5l-9.3,5.6c-0.1-2.1,0-4.3,0.2-6.5c-1.3,0.7-2.6,1.6-3.8,2.7C97.9,40.4,97.8,42.4,97.9,44.4z M111.1,39.9
		c0.2,2.8,0.5,5.6,1.1,8.3l-9.1,5.6c-0.6-2.6-1-5.3-1.2-7.9L111.1,39.9z"/>
	
		<linearGradient id="SVGID_3_" gradientUnits="userSpaceOnUse" x1="180.1531" y1="58.2318" x2="201.5256" y2="88.3113" gradientTransform="matrix(0.5 0 0 -0.5 0.5 87.5)">
		<stop  offset="0" style="stop-color:#115DA6"/>
		<stop  offset="1" style="stop-color:#00A14F"/>
	</linearGradient>
	<path class="st4" d="M101.6,42.2l9.3-5.6c0-1.2,0-2.3,0-3.5c-3.3,0.1-6.4,1-9.2,2.6C101.6,37.9,101.6,40.1,101.6,42.2z"/>
	
		<linearGradient id="SVGID_4_" gradientUnits="userSpaceOnUse" x1="189.7955" y1="51.7666" x2="210.9868" y2="81.5907" gradientTransform="matrix(0.5 0 0 -0.5 0.5 87.5)">
		<stop  offset="0" style="stop-color:#115DA6"/>
		<stop  offset="1" style="stop-color:#00A14F"/>
	</linearGradient>
	<path class="st5" d="M116,33.6c-0.4-0.1-0.8-0.1-1.3-0.2c0,0.3,0,0.6,0,1L116,33.6z"/>
	
		<linearGradient id="SVGID_5_" gradientUnits="userSpaceOnUse" x1="200.7277" y1="42.3038" x2="222.156" y2="72.462" gradientTransform="matrix(0.5 0 0 -0.5 0.5 87.5)">
		<stop  offset="0" style="stop-color:#115DA6"/>
		<stop  offset="1" style="stop-color:#00A14F"/>
	</linearGradient>
	<path class="st6" d="M116.1,45.8l10.3-6.3c-2.1-2.1-4.5-3.7-7.2-4.8l-4.4,2.8C115.1,40.3,115.5,43.1,116.1,45.8z"/>
	
		<linearGradient id="SVGID_6_" gradientUnits="userSpaceOnUse" x1="190.7105" y1="49.5991" x2="212.3035" y2="79.9889" gradientTransform="matrix(0.5 0 0 -0.5 0.5 87.5)">
		<stop  offset="0" style="stop-color:#115DA6"/>
		<stop  offset="1" style="stop-color:#00A14F"/>
	</linearGradient>
	<path class="st7" d="M112.2,48.2c-0.5-2.7-0.9-5.5-1.1-8.3l-9.2,5.9c0.2,2.7,0.7,5.3,1.2,7.9L112.2,48.2z"/>
</g>
</svg>
