<?xml version="1.0" encoding="utf-8"?>
<!-- Generator: Adobe Illustrator 19.1.0, SVG Export Plug-In . SVG Version: 6.00 Build 0)  -->
<!DOCTYPE svg PUBLIC "-//W3C//DTD SVG 1.1//EN" "http://www.w3.org/Graphics/SVG/1.1/DTD/svg11.dtd">
<svg version="1.1" id="IANA_Header_Logo" xmlns="http://www.w3.org/2000/svg" xmlns:xlink="http://www.w3.org/1999/xlink" x="0px"
	 y="0px" viewBox="-160 63.2 127.9 49.8" style="enable-background:new -160 63.2 127.9 49.8;" xml:space="preserve">
<style type="text/css">
	.st0{display:none;}
	.st1{display:inline;fill:#5A5A58;}
	.st2{fill:#11A14E;}
	.st3{fill:#0673BA;}
	.st4{fill:url(#SVGID_1_);}
	.st5{fill:url(#SVGID_2_);}
	.st6{fill:url(#SVGID_3_);}
	.st7{fill:url(#SVGID_4_);}
	.st8{fill:url(#SVGID_5_);}
	.st9{fill:url(#SVGID_6_);}
</style>
<g id="Text_Paths" class="st0">
	<path class="st1" d="M-519.4,376.4V367h1.4v9.4H-519.4z"/>
	<path class="st1" d="M-511,376.4v-5.2c0-0.4-0.1-0.6-0.3-0.8c-0.2-0.2-0.5-0.3-1-0.3c-0.4,0-0.7,0-1,0.1s-0.6,0.2-0.9,0.4v5.7h-1.2
		v-7.1c0.2,0,0.4,0,0.6-0.1c0.2,0,0.5,0,0.6,0v0.7h0.1c0.4-0.3,0.7-0.5,1.1-0.7c0.3-0.1,0.7-0.2,1.1-0.2c0.3,0,0.5,0,0.8,0.1
		c0.2,0.1,0.5,0.2,0.7,0.4c0.2,0.2,0.3,0.4,0.5,0.7c0.1,0.3,0.2,0.6,0.2,1.1v5.2H-511L-511,376.4z"/>
	<path class="st1" d="M-503.4,376.3c-0.2,0.1-0.4,0.2-0.7,0.2c-0.3,0.1-0.5,0.1-0.7,0.1c-0.8,0-1.3-0.2-1.6-0.6
		c-0.3-0.4-0.5-1-0.5-1.8v-4h-0.9v-1.1h0.9v-1.6c0.2,0,0.4-0.1,0.6-0.1s0.5-0.1,0.6-0.1v1.8h1.8c0,0.4,0,0.7-0.1,1.1h-1.8v4.1
		c0,0.4,0.1,0.7,0.2,0.9c0.1,0.1,0.4,0.2,0.8,0.2c0.2,0,0.4,0,0.6-0.1s0.4-0.1,0.5-0.2c0,0.2,0.1,0.3,0.1,0.5
		C-503.4,375.9-503.4,376.1-503.4,376.3z"/>
	<path class="st1" d="M-496.5,372c0,0.2,0,0.3,0,0.5s0,0.4,0,0.5h-4.3v0.1c0,0.4,0,0.7,0.1,1s0.2,0.5,0.3,0.7s0.4,0.3,0.6,0.4
		c0.3,0.1,0.6,0.1,1,0.1c0.3,0,0.7,0,1-0.1c0.4-0.1,0.6-0.2,0.8-0.3c0.1,0.2,0.1,0.4,0.2,0.6s0.1,0.4,0.1,0.6
		c-0.1,0.1-0.3,0.1-0.5,0.2s-0.4,0.1-0.6,0.2c-0.2,0-0.4,0.1-0.6,0.1s-0.4,0-0.6,0c-1.1,0-1.9-0.3-2.5-0.9s-0.8-1.5-0.8-2.8
		c0-0.7,0.1-1.3,0.2-1.7c0.2-0.5,0.4-0.9,0.6-1.2c0.3-0.3,0.6-0.6,0.9-0.7c0.4-0.2,0.8-0.2,1.2-0.2c0.9,0,1.6,0.3,2,0.8
		C-496.7,370.3-496.5,371-496.5,372z M-499.2,370c-0.5,0-0.9,0.2-1.1,0.5c-0.3,0.3-0.4,0.9-0.4,1.7h3.1c0-0.1,0-0.1,0-0.2
		s0-0.2,0-0.2c0-0.6-0.1-1-0.4-1.3C-498.4,370.1-498.7,370-499.2,370z"/>
	<path class="st1" d="M-490.7,369.1c0,0.2,0,0.4,0,0.7c0,0.2-0.1,0.4-0.1,0.7c-0.1,0-0.2,0-0.3-0.1c-0.1,0-0.2,0-0.4,0
		c-0.3,0-0.5,0-0.8,0.1s-0.5,0.3-0.9,0.6v5.4h-1.2v-7.3c0.2,0,0.4,0,0.6-0.1c0.2,0,0.4,0,0.6,0v0.9h0.1c0.2-0.2,0.4-0.4,0.5-0.6
		s0.3-0.2,0.5-0.3c0.1-0.1,0.3-0.1,0.4-0.1s0.2,0,0.4,0c0.1,0,0.2,0,0.3,0C-490.9,369-490.8,369-490.7,369.1z"/>
	<path class="st1" d="M-484.6,376.4v-5.2c0-0.4-0.1-0.6-0.3-0.8c-0.2-0.2-0.5-0.3-1-0.3c-0.4,0-0.7,0-1,0.1s-0.6,0.2-0.9,0.4v5.7
		h-1.2v-7.1c0.2,0,0.4,0,0.6-0.1c0.2,0,0.4,0,0.6,0v0.7h0.1c0.4-0.3,0.7-0.5,1.1-0.7c0.3-0.1,0.7-0.2,1.1-0.2c0.3,0,0.5,0,0.8,0.1
		c0.2,0.1,0.5,0.2,0.7,0.4c0.2,0.2,0.3,0.4,0.5,0.7c0.1,0.3,0.2,0.6,0.2,1.1v5.2H-484.6L-484.6,376.4z"/>
	<path class="st1" d="M-475.6,372c0,0.2,0,0.3,0,0.5s0,0.4,0,0.5h-4.3v0.1c0,0.4,0,0.7,0.1,1s0.2,0.5,0.3,0.7
		c0.2,0.2,0.4,0.3,0.6,0.4c0.3,0.1,0.6,0.1,1,0.1c0.3,0,0.7,0,1-0.1c0.4-0.1,0.6-0.2,0.8-0.3c0.1,0.2,0.1,0.4,0.2,0.6
		s0.1,0.4,0.1,0.6c-0.1,0.1-0.3,0.1-0.5,0.2s-0.4,0.1-0.6,0.2c-0.2,0-0.4,0.1-0.6,0.1s-0.4,0-0.6,0c-1.1,0-1.9-0.3-2.5-0.9
		s-0.8-1.5-0.8-2.8c0-0.7,0.1-1.3,0.2-1.7c0.2-0.5,0.4-0.9,0.6-1.2c0.3-0.3,0.6-0.6,0.9-0.7c0.4-0.2,0.8-0.2,1.2-0.2
		c0.9,0,1.6,0.3,2,0.8C-475.8,370.3-475.6,371-475.6,372z M-478.3,370c-0.5,0-0.9,0.2-1.1,0.5c-0.3,0.3-0.4,0.9-0.4,1.7h3.1
		c0-0.1,0-0.1,0-0.2s0-0.2,0-0.2c0-0.6-0.1-1-0.4-1.3S-477.8,370-478.3,370z"/>
	<path class="st1" d="M-469.7,376.3c-0.2,0.1-0.4,0.2-0.7,0.2c-0.3,0.1-0.5,0.1-0.7,0.1c-0.8,0-1.3-0.2-1.6-0.6
		c-0.3-0.4-0.5-1-0.5-1.8v-4h-0.9v-1.1h0.9v-1.6c0.2,0,0.4-0.1,0.6-0.1s0.5-0.1,0.6-0.1v1.8h1.8c0,0.4,0,0.7-0.1,1.1h-1.8v4.1
		c0,0.4,0.1,0.7,0.2,0.9c0.1,0.1,0.4,0.2,0.8,0.2c0.2,0,0.4,0,0.6-0.1s0.4-0.1,0.5-0.2c0,0.2,0.1,0.3,0.1,0.5
		C-469.7,375.9-469.7,376.1-469.7,376.3z"/>
	<path class="st1" d="M-458.6,376.4c-0.2,0-0.4,0.1-0.7,0.1c-0.2,0-0.5,0-0.7,0l-0.9-2.9h-3.2l-0.9,2.9c-0.2,0-0.4,0-0.6,0
		s-0.4-0.1-0.6-0.1c0.4-1.5,0.9-3.1,1.5-4.6c0.5-1.6,1.1-3.1,1.7-4.7h1.5c0.5,1.5,1.1,3.1,1.6,4.7
		C-459.6,373.3-459.1,374.8-458.6,376.4z M-462.3,369c0-0.1-0.1-0.2-0.1-0.3c0-0.1,0-0.2,0-0.4h-0.1c0,0.3,0,0.5-0.1,0.7l-1.1,3.5
		h2.5L-462.3,369z"/>
	<path class="st1" d="M-452.8,374.4c0,0.4-0.1,0.7-0.2,1s-0.3,0.5-0.6,0.7c-0.2,0.2-0.5,0.3-0.9,0.4c-0.3,0.1-0.7,0.1-1,0.1
		c-0.4,0-0.7,0-1.1-0.1s-0.7-0.2-1-0.3c0-0.2,0.1-0.4,0.1-0.6s0.1-0.4,0.2-0.6c0.3,0.1,0.6,0.3,1,0.3c0.4,0.1,0.7,0.1,1.1,0.1
		s0.7-0.1,0.9-0.3c0.2-0.2,0.3-0.4,0.3-0.7c0-0.2-0.1-0.4-0.3-0.6s-0.4-0.3-0.6-0.4c-0.3-0.1-0.5-0.2-0.8-0.3
		c-0.3-0.1-0.6-0.2-0.8-0.4c-0.3-0.2-0.5-0.4-0.6-0.6c-0.2-0.2-0.3-0.6-0.3-0.9c0-0.4,0.1-0.7,0.2-1s0.3-0.5,0.6-0.7
		c0.3-0.2,0.5-0.3,0.9-0.4c0.3-0.1,0.7-0.1,1.1-0.1c0.2,0,0.5,0,0.8,0s0.6,0.1,0.9,0.2c0,0.2,0,0.4-0.1,0.6c0,0.2-0.1,0.4-0.1,0.6
		c-0.3-0.1-0.6-0.1-0.9-0.2c-0.3,0-0.7-0.1-1-0.1c-0.7,0-1.1,0.3-1.1,1c0,0.2,0.1,0.4,0.3,0.5c0.2,0.1,0.4,0.3,0.6,0.4
		c0.3,0.1,0.5,0.2,0.8,0.3c0.3,0.1,0.6,0.3,0.8,0.4s0.5,0.4,0.6,0.7C-452.9,373.7-452.8,374-452.8,374.4z"/>
	<path class="st1" d="M-446.5,374.4c0,0.4-0.1,0.7-0.2,1s-0.3,0.5-0.6,0.7c-0.2,0.2-0.5,0.3-0.9,0.4c-0.3,0.1-0.7,0.1-1,0.1
		c-0.4,0-0.7,0-1.1-0.1s-0.7-0.2-1-0.3c0-0.2,0.1-0.4,0.1-0.6s0.1-0.4,0.2-0.6c0.3,0.1,0.6,0.3,1,0.3c0.4,0.1,0.7,0.1,1.1,0.1
		s0.7-0.1,0.9-0.3c0.2-0.2,0.3-0.4,0.3-0.7c0-0.2-0.1-0.4-0.3-0.6s-0.4-0.3-0.6-0.4c-0.3-0.1-0.5-0.2-0.8-0.3
		c-0.3-0.1-0.6-0.2-0.8-0.4c-0.3-0.2-0.5-0.4-0.6-0.6c-0.2-0.2-0.3-0.6-0.3-0.9c0-0.4,0.1-0.7,0.2-1s0.3-0.5,0.6-0.7
		c0.3-0.2,0.5-0.3,0.9-0.4c0.3-0.1,0.7-0.1,1.1-0.1c0.2,0,0.5,0,0.8,0s0.6,0.1,0.9,0.2c0,0.2,0,0.4-0.1,0.6c0,0.2-0.1,0.4-0.1,0.6
		c-0.3-0.1-0.6-0.1-0.9-0.2c-0.3,0-0.7-0.1-1-0.1c-0.7,0-1.1,0.3-1.1,1c0,0.2,0.1,0.4,0.3,0.5c0.2,0.1,0.4,0.3,0.6,0.4
		c0.3,0.1,0.5,0.2,0.8,0.3c0.3,0.1,0.6,0.3,0.8,0.4s0.5,0.4,0.6,0.7C-446.6,373.7-446.5,374-446.5,374.4z"/>
	<path class="st1" d="M-443,367.1c0,0.2-0.1,0.4-0.2,0.5s-0.3,0.2-0.6,0.2c-0.2,0-0.4-0.1-0.5-0.2c-0.1-0.2-0.2-0.3-0.2-0.5
		s0.1-0.4,0.2-0.6s0.3-0.2,0.6-0.2c0.2,0,0.4,0.1,0.5,0.2C-443.1,366.7-443,366.9-443,367.1z M-444.4,376.4v-7.3h1.2v7.3H-444.4z"/>
	<path class="st1" d="M-434.8,376.9c0,0.8-0.3,1.4-0.8,1.8c-0.5,0.5-1.3,0.7-2.4,0.7c-0.5,0-1-0.1-1.4-0.2s-0.7-0.3-0.9-0.4
		c-0.2-0.2-0.4-0.4-0.5-0.7c-0.1-0.3-0.1-0.5-0.1-0.8s0.1-0.6,0.2-0.8c0.1-0.2,0.3-0.5,0.5-0.7c-0.1-0.1-0.2-0.3-0.2-0.5
		s-0.1-0.3-0.2-0.5c0-0.1,0.1-0.2,0.1-0.4c0.1-0.1,0.1-0.3,0.2-0.4c0.1-0.2,0.1-0.3,0.2-0.4s0.2-0.3,0.3-0.4
		c-0.3-0.2-0.5-0.4-0.6-0.7c-0.1-0.3-0.2-0.6-0.2-1s0.1-0.7,0.2-1s0.3-0.6,0.5-0.8c0.2-0.2,0.5-0.4,0.8-0.5s0.7-0.2,1.1-0.2
		c0.2,0,0.4,0,0.6,0s0.4,0.1,0.6,0.1h2.1c0,0.1,0,0.3,0,0.5s0,0.3-0.1,0.5l-1,0.1v0.1c0.1,0.2,0.2,0.3,0.3,0.5
		c0.1,0.2,0.1,0.4,0.1,0.7c0,0.4-0.1,0.7-0.2,1s-0.3,0.5-0.5,0.7s-0.5,0.3-0.8,0.4s-0.6,0.1-1,0.1c-0.2,0-0.4,0-0.5,0
		c-0.2,0-0.3-0.1-0.5-0.1c-0.2,0.2-0.3,0.4-0.3,0.6c-0.1,0.2-0.1,0.3-0.1,0.4c0,0.3,0.1,0.4,0.4,0.4h2.2c0.3,0,0.6,0,0.8,0.1
		c0.2,0.1,0.5,0.2,0.6,0.3c0.2,0.1,0.3,0.3,0.4,0.6C-434.9,376.2-434.8,376.6-434.8,376.9z M-436,377c0-0.4-0.1-0.6-0.2-0.7
		s-0.4-0.2-0.7-0.2h-2.6c-0.1,0.1-0.2,0.3-0.3,0.5c0,0.2-0.1,0.3-0.1,0.5c0,0.5,0.1,0.8,0.4,1s0.7,0.3,1.4,0.3
		c0.6,0,1.1-0.1,1.4-0.3C-436.2,377.9-436,377.5-436,377z M-436.7,371.3c0-0.5-0.1-0.9-0.4-1.1c-0.2-0.2-0.6-0.3-1-0.3
		c-0.9,0-1.3,0.5-1.3,1.4c0,0.5,0.1,0.9,0.4,1.1c0.2,0.2,0.6,0.3,1,0.3s0.8-0.1,1-0.3C-436.9,372.2-436.7,371.9-436.7,371.3z"/>
	<path class="st1" d="M-428.6,376.4v-5.2c0-0.4-0.1-0.6-0.3-0.8c-0.2-0.2-0.5-0.3-1-0.3c-0.4,0-0.7,0-1,0.1s-0.6,0.2-0.9,0.4v5.7
		h-1.2v-7.1c0.2,0,0.4,0,0.6-0.1c0.2,0,0.4,0,0.6,0v0.7h0.1c0.4-0.3,0.7-0.5,1.1-0.7c0.3-0.1,0.7-0.2,1.1-0.2c0.3,0,0.5,0,0.8,0.1
		c0.2,0.1,0.5,0.2,0.7,0.4c0.2,0.2,0.3,0.4,0.5,0.7c0.1,0.3,0.2,0.6,0.2,1.1v5.2H-428.6L-428.6,376.4z"/>
	<path class="st1" d="M-419.5,372c0,0.2,0,0.3,0,0.5s0,0.4,0,0.5h-4.3v0.1c0,0.4,0,0.7,0.1,1s0.2,0.5,0.3,0.7s0.4,0.3,0.6,0.4
		c0.3,0.1,0.6,0.1,1,0.1c0.3,0,0.7,0,1-0.1s0.6-0.2,0.8-0.3c0.1,0.2,0.1,0.4,0.2,0.6s0.1,0.4,0.1,0.6c-0.1,0.1-0.3,0.1-0.5,0.2
		s-0.4,0.1-0.6,0.2c-0.2,0-0.4,0.1-0.6,0.1s-0.4,0-0.6,0c-1.1,0-1.9-0.3-2.5-0.9s-0.8-1.5-0.8-2.8c0-0.7,0.1-1.3,0.2-1.7
		c0.2-0.5,0.4-0.9,0.6-1.2s0.6-0.6,0.9-0.7c0.4-0.2,0.8-0.2,1.2-0.2c0.9,0,1.6,0.3,2,0.8C-419.7,370.3-419.5,371-419.5,372z
		 M-422.2,370c-0.5,0-0.9,0.2-1.1,0.5c-0.3,0.3-0.4,0.9-0.4,1.7h3.1c0-0.1,0-0.1,0-0.2s0-0.2,0-0.2c0-0.6-0.1-1-0.4-1.3
		C-421.4,370.1-421.8,370-422.2,370z"/>
	<path class="st1" d="M-413.2,376.4v-0.6h-0.1c-0.3,0.3-0.6,0.5-0.9,0.6s-0.7,0.2-1.1,0.2c-0.4,0-0.7-0.1-1.1-0.2
		c-0.3-0.1-0.6-0.4-0.8-0.6c-0.2-0.3-0.4-0.7-0.5-1.1s-0.2-1-0.2-1.6c0-0.7,0.1-1.3,0.2-1.8c0.2-0.5,0.4-0.9,0.7-1.2s0.6-0.6,1-0.7
		s0.8-0.2,1.3-0.2c0.2,0,0.5,0,0.7,0.1c0.2,0,0.5,0.1,0.7,0.2v-3.1c0.2,0,0.4-0.1,0.6-0.1c0.2,0,0.5,0,0.6,0v10.4
		C-412,376.4-413.2,376.4-413.2,376.4z M-413.2,370.4c-0.2-0.1-0.4-0.2-0.7-0.2c-0.3-0.1-0.5-0.1-0.7-0.1c-0.3,0-0.6,0-0.8,0.1
		s-0.4,0.2-0.6,0.4c-0.2,0.2-0.3,0.5-0.4,0.8c-0.1,0.4-0.1,0.8-0.1,1.3s0,0.9,0.1,1.3c0.1,0.3,0.2,0.6,0.3,0.8
		c0.1,0.2,0.3,0.3,0.5,0.4s0.4,0.1,0.7,0.1c0.3,0,0.6,0,0.9-0.1s0.5-0.2,0.8-0.4C-413.2,375-413.2,370.4-413.2,370.4z"/>
	<path class="st1" d="M-400.1,376.5c-0.2,0-0.5,0-0.6,0l-3.9-6.6c0-0.1-0.1-0.1-0.1-0.2s-0.1-0.2-0.1-0.3c0-0.1-0.1-0.2-0.1-0.3
		c0-0.1-0.1-0.2-0.1-0.3h-0.1c0,0.2,0,0.4,0,0.6s0,0.4,0,0.5v6.5h-1.2v-9.3c0.2,0,0.4-0.1,0.7-0.1s0.5,0,0.7,0l3.7,6.3
		c0.1,0.1,0.2,0.3,0.3,0.5c0.1,0.2,0.2,0.4,0.2,0.5h0.1c0-0.1,0-0.3,0-0.5s0-0.4,0-0.5v-6.2h1.2v9.4
		C-399.7,376.4-399.9,376.5-400.1,376.5z"/>
	<path class="st1" d="M-392.6,376.4v-0.6h-0.1c-0.3,0.3-0.7,0.5-1,0.6s-0.7,0.2-1.1,0.2c-0.3,0-0.5,0-0.8-0.1
		c-0.2-0.1-0.5-0.2-0.7-0.4c-0.2-0.2-0.3-0.4-0.4-0.7c-0.1-0.3-0.2-0.6-0.2-1.1v-5.1c0.2,0,0.4,0,0.6-0.1c0.2,0,0.4,0,0.6,0v5.2
		c0,0.4,0.1,0.7,0.3,0.9c0.2,0.2,0.5,0.3,1,0.3c0.3,0,0.7,0,0.9-0.1c0.3-0.1,0.6-0.2,0.8-0.4v-5.8c0.2,0,0.4,0,0.6-0.1
		c0.2,0,0.4,0,0.6,0v7.4L-392.6,376.4L-392.6,376.4z"/>
	<path class="st1" d="M-380.6,376.4v-5.2c0-0.3-0.1-0.6-0.3-0.8c-0.2-0.2-0.5-0.3-0.9-0.3c-0.3,0-0.6,0.1-0.9,0.2
		c-0.2,0.1-0.5,0.3-0.7,0.4v5.7h-1.3v-5.2c0-0.4-0.1-0.6-0.3-0.8c-0.2-0.2-0.5-0.3-0.9-0.3c-0.3,0-0.6,0-0.8,0.1
		c-0.2,0.1-0.5,0.2-0.8,0.4v5.7h-1.2v-7.1c0.2,0,0.4,0,0.6-0.1c0.2,0,0.4,0,0.6,0v0.7h0.1c0.3-0.3,0.6-0.5,0.9-0.6
		c0.3-0.1,0.6-0.2,1-0.2c0.4,0,0.7,0.1,1,0.2c0.3,0.1,0.5,0.4,0.7,0.8c0.4-0.4,0.8-0.6,1.1-0.8c0.3-0.1,0.7-0.2,1.1-0.2
		c0.3,0,0.6,0,0.8,0.1c0.2,0.1,0.5,0.2,0.7,0.4c0.2,0.2,0.3,0.4,0.4,0.7c0.1,0.3,0.2,0.6,0.2,1v5.2H-380.6L-380.6,376.4z"/>
	<path class="st1" d="M-370.8,372.5c0,1.4-0.3,2.4-0.9,3c-0.6,0.7-1.4,1-2.4,1c-0.5,0-1-0.1-1.4-0.2c-0.4-0.1-0.8-0.3-1.2-0.6V366
		c0.2,0,0.4-0.1,0.6-0.1s0.4,0,0.6,0v3.7h0.1c0.3-0.3,0.6-0.5,0.9-0.6c0.3-0.1,0.6-0.2,1-0.2s0.7,0.1,1,0.2s0.6,0.3,0.8,0.6
		c0.2,0.3,0.4,0.6,0.5,1.1C-370.9,371.3-370.8,371.9-370.8,372.5z M-372.1,372.7c0-0.5,0-0.9-0.1-1.2c-0.1-0.3-0.2-0.6-0.3-0.8
		c-0.1-0.2-0.3-0.3-0.5-0.4c-0.2-0.1-0.4-0.1-0.7-0.1c-0.6,0-1.2,0.2-1.7,0.6v4.4c0.2,0.1,0.4,0.2,0.6,0.3c0.2,0.1,0.5,0.1,0.7,0.1
		c0.3,0,0.6,0,0.9-0.1c0.2-0.1,0.4-0.2,0.6-0.5s0.3-0.5,0.4-0.9C-372.2,373.7-372.1,373.2-372.1,372.7z"/>
	<path class="st1" d="M-363.4,372c0,0.2,0,0.3,0,0.5s0,0.4,0,0.5h-4.3v0.1c0,0.4,0,0.7,0.1,1c0.1,0.3,0.2,0.5,0.3,0.7
		s0.4,0.3,0.6,0.4s0.6,0.1,1,0.1c0.3,0,0.7,0,1-0.1s0.6-0.2,0.8-0.3c0.1,0.2,0.1,0.4,0.2,0.6s0.1,0.4,0.1,0.6
		c-0.1,0.1-0.3,0.1-0.5,0.2s-0.4,0.1-0.6,0.2c-0.2,0-0.4,0.1-0.6,0.1s-0.4,0-0.6,0c-1.1,0-1.9-0.3-2.5-0.9s-0.8-1.5-0.8-2.8
		c0-0.7,0.1-1.3,0.2-1.7c0.2-0.5,0.4-0.9,0.6-1.2c0.3-0.3,0.6-0.6,0.9-0.7c0.4-0.2,0.8-0.2,1.2-0.2c0.9,0,1.6,0.3,2,0.8
		C-363.6,370.3-363.4,371-363.4,372z M-366.1,370c-0.5,0-0.9,0.2-1.1,0.5c-0.3,0.3-0.4,0.9-0.4,1.7h3.1c0-0.1,0-0.1,0-0.2
		s0-0.2,0-0.2c0-0.6-0.1-1-0.4-1.3C-365.3,370.1-365.7,370-366.1,370z"/>
	<path class="st1" d="M-357.6,369.1c0,0.2,0,0.4,0,0.7c0,0.2-0.1,0.4-0.1,0.7c-0.1,0-0.2,0-0.3-0.1c-0.1,0-0.2,0-0.4,0
		c-0.3,0-0.5,0-0.8,0.1s-0.5,0.3-0.9,0.6v5.4h-1.2v-7.3c0.2,0,0.4,0,0.6-0.1c0.2,0,0.4,0,0.6,0v0.9h0.1c0.2-0.2,0.4-0.4,0.5-0.6
		c0.2-0.1,0.3-0.2,0.5-0.3c0.1-0.1,0.3-0.1,0.4-0.1c0.1,0,0.2,0,0.3,0s0.2,0,0.3,0C-357.9,369-357.7,369-357.6,369.1z"/>
	<path class="st1" d="M-351.6,374.4c0,0.4-0.1,0.7-0.2,1c-0.1,0.3-0.3,0.5-0.6,0.7c-0.2,0.2-0.5,0.3-0.9,0.4c-0.3,0.1-0.7,0.1-1,0.1
		c-0.4,0-0.7,0-1.1-0.1c-0.4-0.1-0.7-0.2-1-0.3c0-0.2,0.1-0.4,0.1-0.6s0.1-0.4,0.2-0.6c0.3,0.1,0.6,0.3,1,0.3s0.7,0.1,1.1,0.1
		c0.4,0,0.7-0.1,0.9-0.3c0.2-0.2,0.3-0.4,0.3-0.7c0-0.2-0.1-0.4-0.3-0.6s-0.4-0.3-0.6-0.4s-0.5-0.2-0.8-0.3
		c-0.3-0.1-0.6-0.2-0.8-0.4c-0.3-0.2-0.5-0.4-0.6-0.6c-0.2-0.2-0.3-0.6-0.3-0.9c0-0.4,0.1-0.7,0.2-1s0.3-0.5,0.6-0.7
		s0.5-0.3,0.9-0.4c0.3-0.1,0.7-0.1,1.1-0.1c0.2,0,0.5,0,0.8,0c0.3,0,0.6,0.1,0.9,0.2c0,0.2,0,0.4-0.1,0.6c0,0.2-0.1,0.4-0.1,0.6
		c-0.3-0.1-0.6-0.1-0.9-0.2c-0.3,0-0.7-0.1-1-0.1c-0.7,0-1.1,0.3-1.1,1c0,0.2,0.1,0.4,0.3,0.5s0.4,0.3,0.6,0.4s0.5,0.2,0.8,0.3
		c0.3,0.1,0.6,0.3,0.8,0.4s0.5,0.4,0.6,0.7C-351.7,373.7-351.6,374-351.6,374.4z"/>
	<path class="st1" d="M-340.2,376.4c-0.2,0-0.4,0.1-0.7,0.1c-0.2,0-0.5,0-0.7,0l-0.9-2.9h-3.2l-0.9,2.9c-0.2,0-0.4,0-0.6,0
		c-0.2,0-0.4-0.1-0.6-0.1c0.4-1.5,0.9-3.1,1.5-4.6c0.5-1.6,1.1-3.1,1.7-4.7h1.5c0.5,1.5,1.1,3.1,1.6,4.7
		C-341.2,373.3-340.7,374.8-340.2,376.4z M-343.9,369c0-0.1-0.1-0.2-0.1-0.3c0-0.1,0-0.2,0-0.4h-0.1c0,0.3,0,0.5-0.1,0.7l-1.1,3.5
		h2.5L-343.9,369z"/>
	<path class="st1" d="M-334.4,376.4v-0.6h-0.1c-0.3,0.3-0.7,0.5-1,0.6s-0.7,0.2-1.1,0.2c-0.3,0-0.5,0-0.8-0.1
		c-0.2-0.1-0.5-0.2-0.7-0.4c-0.2-0.2-0.3-0.4-0.4-0.7c-0.1-0.3-0.2-0.6-0.2-1.1v-5.1c0.2,0,0.4,0,0.6-0.1c0.2,0,0.4,0,0.6,0v5.2
		c0,0.4,0.1,0.7,0.3,0.9c0.2,0.2,0.5,0.3,1,0.3c0.3,0,0.7,0,0.9-0.1c0.3-0.1,0.6-0.2,0.8-0.4v-5.8c0.2,0,0.4,0,0.6-0.1
		c0.2,0,0.4,0,0.6,0v7.4L-334.4,376.4L-334.4,376.4z"/>
	<path class="st1" d="M-326.7,376.3c-0.2,0.1-0.4,0.2-0.7,0.2c-0.3,0.1-0.5,0.1-0.7,0.1c-0.8,0-1.3-0.2-1.6-0.6
		c-0.3-0.4-0.5-1-0.5-1.8v-4h-0.9v-1.1h0.9v-1.6c0.2,0,0.4-0.1,0.6-0.1s0.5-0.1,0.6-0.1v1.8h1.8c0,0.4,0,0.7-0.1,1.1h-1.8v4.1
		c0,0.4,0.1,0.7,0.2,0.9c0.1,0.1,0.4,0.2,0.8,0.2c0.2,0,0.4,0,0.6-0.1c0.2,0,0.4-0.1,0.5-0.2c0,0.2,0.1,0.3,0.1,0.5
		C-326.8,375.9-326.7,376.1-326.7,376.3z"/>
	<path class="st1" d="M-320.7,376.4v-5.2c0-0.4-0.1-0.6-0.3-0.8c-0.2-0.2-0.5-0.3-1-0.3c-0.3,0-0.7,0-1,0.1s-0.6,0.2-0.9,0.4v5.7
		h-1.2V366c0.2,0,0.4-0.1,0.6-0.1s0.4,0,0.6,0v3.8h0.1c0.4-0.3,0.7-0.5,1-0.6c0.3-0.1,0.7-0.2,1.1-0.2c0.3,0,0.6,0,0.8,0.1
		c0.3,0.1,0.5,0.2,0.7,0.4c0.2,0.2,0.3,0.4,0.4,0.7c0.1,0.3,0.2,0.6,0.2,1v5.2L-320.7,376.4L-320.7,376.4z"/>
	<path class="st1" d="M-311,372.8c0,0.6-0.1,1.2-0.2,1.7c-0.2,0.5-0.4,0.9-0.7,1.2c-0.3,0.3-0.6,0.5-1,0.7s-0.8,0.2-1.3,0.2
		s-0.9-0.1-1.3-0.2c-0.4-0.1-0.7-0.4-1-0.7c-0.3-0.3-0.5-0.7-0.6-1.2s-0.2-1-0.2-1.7c0-0.6,0.1-1.1,0.2-1.6c0.2-0.5,0.4-0.9,0.7-1.2
		c0.3-0.3,0.6-0.6,1-0.7c0.4-0.2,0.8-0.3,1.3-0.3c0.4,0,0.9,0.1,1.2,0.2c0.4,0.1,0.7,0.4,1,0.7c0.3,0.3,0.5,0.7,0.7,1.2
		C-311.1,371.5-311,372.1-311,372.8z M-312.4,372.8c0-0.5,0-0.9-0.1-1.3c-0.1-0.3-0.2-0.6-0.4-0.8c-0.2-0.2-0.3-0.4-0.6-0.5
		c-0.2-0.1-0.5-0.1-0.7-0.1c-0.3,0-0.5,0-0.7,0.1s-0.4,0.2-0.6,0.4c-0.2,0.2-0.3,0.5-0.4,0.8s-0.1,0.8-0.1,1.3s0,0.9,0.1,1.3
		c0.1,0.3,0.2,0.6,0.3,0.8c0.1,0.2,0.3,0.4,0.6,0.4c0.2,0.1,0.5,0.1,0.7,0.1s0.5,0,0.8-0.1c0.3-0.1,0.4-0.2,0.6-0.4s0.3-0.5,0.4-0.8
		C-312.4,373.7-312.4,373.3-312.4,372.8z"/>
	<path class="st1" d="M-305.2,369.1c0,0.2,0,0.4,0,0.7c0,0.2-0.1,0.4-0.1,0.7c-0.1,0-0.2,0-0.3-0.1c-0.1,0-0.2,0-0.4,0
		c-0.3,0-0.5,0-0.8,0.1c-0.3,0.1-0.5,0.3-0.9,0.6v5.4h-1.2v-7.3c0.2,0,0.4,0,0.6-0.1c0.2,0,0.4,0,0.6,0v0.9h0.1
		c0.2-0.2,0.4-0.4,0.5-0.6c0.2-0.1,0.3-0.2,0.5-0.3c0.1-0.1,0.3-0.1,0.4-0.1s0.2,0,0.3,0c0.1,0,0.2,0,0.3,0S-305.3,369-305.2,369.1z
		"/>
	<path class="st1" d="M-302.1,367.1c0,0.2-0.1,0.4-0.2,0.5c-0.1,0.1-0.3,0.2-0.6,0.2c-0.2,0-0.4-0.1-0.5-0.2
		c-0.1-0.2-0.2-0.3-0.2-0.5s0.1-0.4,0.2-0.6c0.1-0.2,0.3-0.2,0.6-0.2c0.2,0,0.4,0.1,0.5,0.2C-302.2,366.7-302.1,366.9-302.1,367.1z
		 M-303.5,376.4v-7.3h1.2v7.3H-303.5z"/>
	<path class="st1" d="M-295.8,376.3c-0.2,0.1-0.4,0.2-0.7,0.2c-0.3,0.1-0.5,0.1-0.7,0.1c-0.8,0-1.3-0.2-1.6-0.6
		c-0.3-0.4-0.5-1-0.5-1.8v-4h-0.9v-1.1h0.9v-1.6c0.2,0,0.4-0.1,0.6-0.1s0.5-0.1,0.6-0.1v1.8h1.8c0,0.4,0,0.7-0.1,1.1h-1.8v4.1
		c0,0.4,0.1,0.7,0.2,0.9c0.1,0.1,0.4,0.2,0.8,0.2c0.2,0,0.4,0,0.6-0.1c0.2,0,0.4-0.1,0.5-0.2c0,0.2,0.1,0.3,0.1,0.5
		C-295.8,375.9-295.8,376.1-295.8,376.3z"/>
	<path class="st1" d="M-291,376.2c-0.4,1.2-0.8,2-1.3,2.5s-1.1,0.8-1.7,0.8c-0.2,0-0.4,0-0.6,0s-0.5-0.1-0.7-0.2
		c0-0.2,0.1-0.4,0.1-0.6s0.1-0.4,0.2-0.5c0.1,0.1,0.3,0.1,0.5,0.2c0.2,0,0.4,0.1,0.6,0.1c0.3,0,0.5-0.1,0.7-0.2
		c0.2-0.1,0.4-0.4,0.5-0.7l0.4-0.9c-0.2-0.5-0.4-1.1-0.7-1.6c-0.2-0.6-0.5-1.2-0.7-1.8c-0.2-0.6-0.4-1.3-0.6-1.9s-0.4-1.3-0.5-1.9
		c0.2,0,0.4-0.1,0.6-0.1s0.4,0,0.6,0l1.6,5.2c0,0.1,0.1,0.3,0.1,0.4c0,0.2,0.1,0.3,0.1,0.4h0.1c0-0.1,0.1-0.3,0.1-0.5
		s0.1-0.3,0.1-0.4l1.7-5.2c0.2,0,0.4,0,0.6,0s0.4,0,0.6,0.1L-291,376.2z"/>
</g>
<g id="Logo">
	<path class="st2" d="M-45.7,109.4c-1.7,0-1.8-1-1.8-1.8c0-0.7,13.4-21.1,13.4-21.1l-9.4,1.6c0,0,0-1.7-4.7-1.7s-12,4.8-15.9,9.2
		c-4,4.4-6.4,9.3-6.3,10.6l-4.1,1.9c0,0-3,1.4-4.3,1.3c-1.2-0.1-1.8-0.5-1.8-1.5s4.4-7,5.6-8.8s5.8-7.2,5.7-9.7
		c0-2.5-1.5-2.8-3.5-2.8s-5.3,0.7-7.4,2.1s-12.1,13.2-14.6,16.3c-2.4,3.1-2.9,3.8-3.9,4.5c0,0,3.5-5.2,4.6-6.8
		c1.1-1.6,10.4-15.9,10.4-15.9l-10,1.7c0,0-10.9,17.2-11.4,17.6s-4.8,2.8-6.5,3.2c-1.7,0.3-3.2,0-3.1-1.5c0.1-1.4,4-6.9,5.5-8.8
		c1.4-1.8,8.2-12.5,8.2-12.5l-9.3,1.6c0,0-1.5-1.5-4.6-1.6s-11.7,3.8-14.6,7s-7.7,9.1-7.9,12.2c0,0-6,3.8-8.2,3.9
		c-1.9,0-1.9-0.9-1.9-1.8c0.1-1.7,4.8-8.3,6.1-10.3c1.3-1.9,7.4-11.2,7.4-11.2c-1.5,0.7-7.2,4.3-10.6,3.1c0,0-10.4,14.8-11.1,17
		c-1,2.8,2.1,5,5.7,5.1c5.3,0.1,10.7-2.8,12.4-4.1c0,0,0,4,6.3,4.1c6.3,0,8.1-2.5,9-3c0,0,1.3,3.1,5.8,3.1c4.5-0.1,8.9-2.3,10.7-3.6
		c0,0-0.1,3.4,4.3,3.2c4.4-0.2,5.4-2.8,6.8-4.6c0,0,12.7-16.3,15.9-17.6c3.2-1.3,2.4-1,1.3,0.6c-1,1.6-11,13.7-11.1,18s3.7,4,5.9,4
		c2.2,0,9.6-2.3,12.2-4c0,0,1,4,5.3,4s8.9-2.2,10-2.9c0,0,0.8,2.9,5.7,2.9c4.9-0.1,11.8-4,12.4-4.4l-0.4-0.8
		C-37.3,106.2-44,109.4-45.7,109.4z M-121.4,104.4c-0.5,0.8-1,1.6-1,2.5c0,0-3.2,2.6-5.1,2.6s-1.8-1.2-1.8-2.1
		c0.1-2.6,2.8-7.2,4.5-9.5c1.3-1.8,6.3-10.2,10.6-10.3c2.4-0.1,2.3,1,2.7,1.9C-111.5,89.6-120.9,103.5-121.4,104.4z M-54.3,104.4
		c-0.5,0.8-1,1.6-1,2.5c0,0-3.7,2.6-5.1,2.6c-1.9,0-1.8-1.2-1.8-2.1c0.1-2.6,2.8-7.2,4.5-9.5c1.3-1.8,6.3-10.2,10.6-10.3
		c2.4-0.1,2.3,1,2.7,1.9C-44.4,89.6-53.8,103.5-54.3,104.4z"/>
	<path class="st3" d="M-47.8,106.7c-1.7,0-1.8-1-1.8-1.8c0-0.7,13.4-21.1,13.4-21.1l-9.4,1.6c0,0,0-1.7-4.7-1.7s-12,4.8-15.9,9.2
		c-4,4.4-6.4,9.3-6.3,10.6l-4.1,1.9c0,0-3,1.4-4.3,1.3c-1.2-0.1-1.8-0.5-1.8-1.5s4.4-7,5.6-8.8s5.8-7.2,5.7-9.7
		c0-2.5-1.5-2.8-3.5-2.8s-5.3,0.7-7.4,2.1s-12.1,13.2-14.6,16.3c-2.4,3.1-2.9,3.8-3.9,4.5c0,0,3.5-5.2,4.6-6.8
		c1.1-1.6,10.4-15.9,10.4-15.9l-10,1.7c0,0-10.9,17.2-11.4,17.6s-4.8,2.8-6.5,3.2c-1.7,0.3-3.2,0-3.1-1.5c0.1-1.4,4-6.9,5.5-8.8
		c1.4-1.8,8.2-12.5,8.2-12.5l-9.3,1.6c0,0-1.5-1.5-4.6-1.6s-11.7,3.8-14.6,7s-7.7,9.1-7.9,12.2c0,0-6,3.8-8.2,3.9
		c-1.9,0-1.9-0.9-1.9-1.8c0.1-1.7,4.8-8.3,6.1-10.3c1.3-1.9,7.4-11.2,7.4-11.2c-1.5,0.7-7.2,4.3-10.6,3.1c0,0-10.4,14.8-11.1,17
		c-1,2.8,2.1,5,5.7,5.1c5.3,0.1,10.7-2.8,12.4-4.1c0,0,0,4,6.3,4.1c6.3,0,8.1-2.5,9-3c0,0,1.3,3.1,5.8,3.1c4.5-0.1,8.9-2.3,10.7-3.6
		c0,0-0.1,3.4,4.3,3.2c4.4-0.2,5.4-2.8,6.8-4.6c0,0,12.7-16.3,15.9-17.6s2.4-1,1.3,0.6c-1,1.6-11,13.7-11.1,18s3.7,4,5.9,4
		c2.2,0,9.6-2.3,12.2-4c0,0,1,4,5.3,4s8.9-2.2,10-2.9c0,0,0.8,2.9,5.7,2.9c4.9-0.1,11.8-4,12.4-4.4l-0.4-0.8
		C-39.5,103.6-46.1,106.7-47.8,106.7z M-123.6,101.7c-0.5,0.8-1,1.6-1,2.5c0,0-3.2,2.6-5.1,2.6s-1.8-1.2-1.8-2.1
		c0.1-2.6,2.8-7.2,4.5-9.5c1.3-1.8,6.3-10.2,10.6-10.3c2.4-0.1,2.3,1,2.7,1.9C-113.6,86.9-123,100.9-123.6,101.7z M-56.4,101.7
		c-0.5,0.8-1,1.6-1,2.5c0,0-3.7,2.6-5.1,2.6c-1.9,0-1.8-1.2-1.8-2.1c0.1-2.6,2.8-7.2,4.5-9.5c1.3-1.8,6.3-10.2,10.6-10.3
		c2.4-0.1,2.3,1,2.7,1.9C-46.5,86.9-55.9,100.9-56.4,101.7z"/>
	
		<linearGradient id="SVGID_1_" gradientUnits="userSpaceOnUse" x1="746.5587" y1="-232.8918" x2="755.8088" y2="-245.9104" gradientTransform="matrix(0.5 0 0 0.5 -522 196.1)">
		<stop  offset="0" style="stop-color:#0673BA"/>
		<stop  offset="1" style="stop-color:#11A14E"/>
	</linearGradient>
	<path class="st4" d="M-137.3,68.8l-5.2,3.2c1,3.2,2.5,6.3,4.4,9.3c-0.5,0.6-1,1.1-1.7,1.5c-2-2.9-3.5-6.2-4.5-9.8l-3.9,2.4
		c0.9,3.1,2.2,6,3.9,9c-0.2,0-0.4,0-0.7,0c-0.6,0-1.2-0.1-1.8-0.2c-1.3-2.4-2.4-5-3.1-7.8l-3.5,2.2c-0.3-0.7-0.5-1.4-0.7-2.1
		l3.7-2.3c-0.2-1.1-0.4-2.3-0.5-3.4l-3.4,2.1c0.1-0.7,0.3-1.4,0.5-2.1l2.8-1.7c0-0.9,0-1.7,0.1-2.6c-2.1,1.8-3.4,4.7-3.4,7.8
		c0,5.6,4.2,10.1,9.3,10.1c5.2,0,9.3-4.5,9.3-10.1C-135.6,72.4-136.2,70.4-137.3,68.8z"/>
	
		<linearGradient id="SVGID_2_" gradientUnits="userSpaceOnUse" x1="752.8932" y1="-245.8186" x2="750.0695" y2="-224.0253" gradientTransform="matrix(0.5 0 0 0.5 -522 196.1)">
		<stop  offset="0" style="stop-color:#FFFFFF"/>
		<stop  offset="1" style="stop-color:#1173BA"/>
	</linearGradient>
	<path class="st5" d="M-150.9,69.4l-2.8,1.7c-0.2,0.7-0.4,1.4-0.5,2.1l3.4-2.1c0.1,1.2,0.3,2.3,0.5,3.4l-3.7,2.3
		c0.2,0.7,0.4,1.4,0.7,2.1l3.5-2.2c0.7,2.8,1.8,5.4,3.1,7.8c0.6,0.1,1.2,0.2,1.8,0.2c0.2,0,0.5,0,0.7,0c-1.6-3-3-6-3.9-9l3.9-2.4
		c1,3.6,2.5,6.8,4.5,9.8c0.6-0.4,1.2-1,1.7-1.5c-1.9-3-3.4-6.1-4.4-9.3l5.2-3.2c-0.4-0.6-0.8-1.1-1.3-1.6l-4.5,2.7
		c-0.3-1.2-0.4-2.4-0.5-3.6l1.9-1.2c-0.5-0.2-0.9-0.3-1.4-0.5l-0.5,0.3c0-0.1,0-0.3,0-0.4c-0.4-0.1-0.9-0.1-1.3-0.1
		c-0.1,0-0.2,0-0.3,0c0,0.5,0,1,0,1.5l-4,2.4c0-0.9,0-1.9,0.1-2.8c-0.6,0.3-1.1,0.7-1.6,1.1C-150.9,67.6-150.9,68.5-150.9,69.4z
		 M-145.2,67.4c0.1,1.2,0.2,2.4,0.5,3.6l-3.9,2.4c-0.2-1.1-0.4-2.3-0.5-3.4L-145.2,67.4z"/>
	
		<linearGradient id="SVGID_3_" gradientUnits="userSpaceOnUse" x1="735.9428" y1="-241.2978" x2="745.1724" y2="-254.2873" gradientTransform="matrix(0.5 0 0 0.5 -522 196.1)">
		<stop  offset="0" style="stop-color:#115DA6"/>
		<stop  offset="1" style="stop-color:#00A14F"/>
	</linearGradient>
	<path class="st6" d="M-149.2,68.4l4-2.4c0-0.5,0-1,0-1.5c-1.4,0-2.8,0.4-4,1.1C-149.2,66.6-149.3,67.5-149.2,68.4z"/>
	
		<linearGradient id="SVGID_4_" gradientUnits="userSpaceOnUse" x1="740.1852" y1="-238.4502" x2="749.3364" y2="-251.3294" gradientTransform="matrix(0.5 0 0 0.5 -522 196.1)">
		<stop  offset="0" style="stop-color:#115DA6"/>
		<stop  offset="1" style="stop-color:#00A14F"/>
	</linearGradient>
	<path class="st7" d="M-143,64.7c-0.2,0-0.4-0.1-0.5-0.1c0,0.1,0,0.3,0,0.4L-143,64.7z"/>
	
		<linearGradient id="SVGID_5_" gradientUnits="userSpaceOnUse" x1="744.9075" y1="-234.3627" x2="754.1611" y2="-247.3862" gradientTransform="matrix(0.5 0 0 0.5 -522 196.1)">
		<stop  offset="0" style="stop-color:#115DA6"/>
		<stop  offset="1" style="stop-color:#00A14F"/>
	</linearGradient>
	<path class="st8" d="M-143,70l4.5-2.7c-0.9-0.9-1.9-1.6-3.1-2.1l-1.9,1.2C-143.4,67.6-143.2,68.8-143,70z"/>
	
		<linearGradient id="SVGID_6_" gradientUnits="userSpaceOnUse" x1="740.4827" y1="-237.5834" x2="749.8074" y2="-250.7069" gradientTransform="matrix(0.5 0 0 0.5 -522 196.1)">
		<stop  offset="0" style="stop-color:#115DA6"/>
		<stop  offset="1" style="stop-color:#00A14F"/>
	</linearGradient>
	<path class="st9" d="M-144.7,71c-0.2-1.2-0.4-2.4-0.5-3.6l-4,2.6c0.1,1.2,0.3,2.3,0.5,3.4L-144.7,71z"/>
</g>
</svg>
